<svg width="99" height="32" viewBox="0 0 99 32" fill="none" xmlns="http://www.w3.org/2000/svg">
<path d="M16.4367 5.95801H21.1698L13.9614 18.6018V24.9102H9.50036V18.6018L2.29199 5.95801H7.02503L11.7309 14.5677L16.4367 5.95801Z" fill="white"/>
<path d="M26.915 25.208C24.8477 25.208 23.134 24.5672 21.7739 23.2857C20.4139 21.9861 19.7338 20.2985 19.7338 18.2228C19.7338 16.1651 20.4048 14.4865 21.7467 13.1869C23.1068 11.8873 24.7842 11.2375 26.779 11.2375C28.7375 11.2375 30.3605 11.8512 31.648 13.0786C32.9356 14.2879 33.5793 15.8853 33.5793 17.8708C33.5793 18.2318 33.5521 18.683 33.4977 19.2245H24.1132C24.2583 20.0729 24.5757 20.7136 25.0653 21.1468C25.5731 21.58 26.1805 21.7966 26.8878 21.7966C27.4862 21.7966 28.003 21.6522 28.4383 21.3634C28.8735 21.0566 29.1455 20.6505 29.2543 20.1451L33.0353 21.1468C32.6726 22.4825 31.9291 23.4933 30.8048 24.1792C29.6986 24.8651 28.402 25.208 26.915 25.208ZM24.2493 16.5171H29.4175C29.3087 16.0297 29.0186 15.6056 28.5471 15.2446C28.0937 14.8655 27.5134 14.676 26.8062 14.676C25.5368 14.676 24.6845 15.2897 24.2493 16.5171Z" fill="white"/>
<path d="M48.042 21.4446C48.187 21.4446 48.3956 21.3995 48.6676 21.3093V24.9643C48.2868 25.1087 47.7518 25.1809 47.0627 25.1809C45.3218 25.1809 44.1431 24.6936 43.5265 23.7189C42.5836 24.6936 41.2326 25.1809 39.4735 25.1809C38.0953 25.1809 36.971 24.8199 36.1006 24.098C35.2482 23.376 34.8221 22.3832 34.8221 21.1198C34.8221 19.9465 35.212 18.9989 35.9917 18.2769C36.7715 17.5549 37.8233 17.1308 39.1471 17.0044L43.0369 16.6525V16.3817C43.0369 15.8583 42.8556 15.4431 42.4929 15.1363C42.1302 14.8114 41.6678 14.6489 41.1056 14.6489C40.0901 14.6489 39.4826 15.1363 39.2831 16.111L35.3933 15.5695C35.6291 14.0533 36.3 12.9523 37.4062 12.2664C38.5305 11.5805 39.8725 11.2375 41.432 11.2375C43.2817 11.2375 44.7325 11.6798 45.7843 12.5642C46.8542 13.4306 47.3891 14.667 47.3891 16.2734V20.7136C47.3891 21.201 47.6067 21.4446 48.042 21.4446ZM43.0369 19.6577V19.3599L40.48 19.6577C40.0448 19.7119 39.7002 19.8563 39.4463 20.0909C39.1924 20.3075 39.0655 20.5692 39.0655 20.8761C39.0655 21.2371 39.2196 21.5168 39.5279 21.7154C39.8543 21.9139 40.2624 22.0042 40.752 21.9861C41.4048 21.95 41.9489 21.7334 42.3841 21.3364C42.8193 20.9393 43.0369 20.3797 43.0369 19.6577Z" fill="white"/>
<path d="M58.4548 11.2375C59.9781 11.2375 61.2203 11.6798 62.1814 12.5642C63.1606 13.4486 63.6503 14.685 63.6503 16.2734V24.9102H59.298V17.6001C59.298 16.7878 59.0986 16.1832 58.6996 15.7861C58.3006 15.3709 57.7566 15.1634 57.0675 15.1634C56.3784 15.1634 55.8253 15.3799 55.4082 15.8131C55.0093 16.2463 54.8098 16.8781 54.8098 17.7084V24.9102H50.4576V5.95801H54.8098V12.6183C55.6984 11.6978 56.9134 11.2375 58.4548 11.2375Z" fill="white"/>
<path d="M74.9422 11.5083H79.2944V24.9102H74.9422V23.8001C74.0536 24.7207 72.8387 25.1809 71.2972 25.1809C69.8465 25.1809 68.6134 24.7207 67.5979 23.8001C66.6005 22.8615 66.1018 21.5529 66.1018 19.8743V11.5083H70.454V18.9267C70.454 19.7029 70.6535 20.2895 71.0524 20.6866C71.4514 21.0656 71.9954 21.2551 72.6845 21.2551C73.3736 21.2551 73.9176 21.0385 74.3166 20.6053C74.7337 20.1721 74.9422 19.5404 74.9422 18.7101V11.5083Z" fill="white"/>
<path d="M90.0715 11.2375C91.9212 11.2375 93.4898 11.8964 94.7774 13.214C96.0649 14.5136 96.7087 16.1832 96.7087 18.2228C96.7087 20.2263 96.074 21.8869 94.8046 23.2045C93.5352 24.5221 91.9665 25.1809 90.0987 25.1809C88.5029 25.1809 87.1972 24.6936 86.1817 23.7189V24.9102H81.8295V5.95801H86.1817V12.6725C87.1791 11.7159 88.4757 11.2375 90.0715 11.2375ZM89.2011 21.4176C90.0352 21.4176 90.7425 21.1288 91.3228 20.5512C91.9031 19.9555 92.1932 19.1794 92.1932 18.2228C92.1932 17.2481 91.9031 16.472 91.3228 15.8944C90.7606 15.2987 90.0534 15.0009 89.2011 15.0009C88.3306 15.0009 87.6053 15.2987 87.025 15.8944C86.4628 16.472 86.1817 17.2481 86.1817 18.2228C86.1817 19.1794 86.4628 19.9555 87.025 20.5512C87.6053 21.1288 88.3306 21.4176 89.2011 21.4176Z" fill="white"/>
</svg>
