<svg width="99" height="32" viewBox="0 0 99 32" fill="none" xmlns="http://www.w3.org/2000/svg">
<path d="M16.4338 5.95703H21.1668L13.9585 18.6008V24.9092H9.49743V18.6008L2.28906 5.95703H7.0221L11.7279 14.5667L16.4338 5.95703Z" fill="#141414"/>
<path d="M26.9121 25.207C24.8448 25.207 23.1311 24.5663 21.771 23.2847C20.4109 21.9852 19.7309 20.2975 19.7309 18.2218C19.7309 16.1641 20.4019 14.4855 21.7438 13.1859C23.1039 11.8864 24.7813 11.2366 26.776 11.2366C28.7345 11.2366 30.3576 11.8503 31.6451 13.0776C32.9326 14.287 33.5764 15.8844 33.5764 17.8698C33.5764 18.2308 33.5492 18.6821 33.4948 19.2236H24.1103C24.2554 20.0719 24.5727 20.7127 25.0624 21.1459C25.5701 21.579 26.1776 21.7956 26.8849 21.7956C27.4833 21.7956 28.0001 21.6512 28.4353 21.3624C28.8706 21.0556 29.1426 20.6495 29.2514 20.1441L33.0324 21.1459C32.6697 22.4815 31.9262 23.4923 30.8019 24.1782C29.6957 24.8641 28.3991 25.207 26.9121 25.207ZM24.2463 16.5161H29.4146C29.3058 16.0288 29.0156 15.6046 28.5441 15.2436C28.0908 14.8646 27.5105 14.675 26.8033 14.675C25.5339 14.675 24.6815 15.2887 24.2463 16.5161Z" fill="#141414"/>
<path d="M48.039 21.4437C48.1841 21.4437 48.3927 21.3985 48.6647 21.3083V24.9634C48.2838 25.1078 47.7489 25.18 47.0598 25.18C45.3189 25.18 44.1402 24.6926 43.5236 23.7179C42.5806 24.6926 41.2296 25.18 39.4706 25.18C38.0924 25.18 36.9681 24.819 36.0976 24.097C35.2453 23.375 34.8192 22.3823 34.8192 21.1188C34.8192 19.9455 35.209 18.9979 35.9888 18.2759C36.7686 17.554 37.8204 17.1298 39.1442 17.0034L43.034 16.6515V16.3807C43.034 15.8573 42.8526 15.4421 42.49 15.1353C42.1273 14.8104 41.6648 14.648 41.1027 14.648C40.0872 14.648 39.4797 15.1353 39.2802 16.11L35.3904 15.5685C35.6261 14.0523 36.2971 12.9513 37.4033 12.2654C38.5276 11.5795 39.8696 11.2366 41.4291 11.2366C43.2788 11.2366 44.7295 11.6788 45.7813 12.5632C46.8512 13.4296 47.3862 14.666 47.3862 16.2724V20.7127C47.3862 21.2 47.6038 21.4437 48.039 21.4437ZM43.034 19.6568V19.3589L40.4771 19.6568C40.0418 19.7109 39.6973 19.8553 39.4434 20.0899C39.1895 20.3065 39.0626 20.5683 39.0626 20.8751C39.0626 21.2361 39.2167 21.5159 39.525 21.7144C39.8514 21.913 40.2594 22.0032 40.7491 21.9852C41.4019 21.9491 41.9459 21.7325 42.3811 21.3354C42.8164 20.9383 43.034 20.3787 43.034 19.6568Z" fill="#141414"/>
<path d="M58.4519 11.2366C59.9751 11.2366 61.2173 11.6788 62.1784 12.5632C63.1577 13.4477 63.6473 14.6841 63.6473 16.2724V24.9092H59.2951V17.5991C59.2951 16.7868 59.0956 16.1822 58.6967 15.7851C58.2977 15.3699 57.7537 15.1624 57.0646 15.1624C56.3755 15.1624 55.8224 15.379 55.4053 15.8122C55.0063 16.2454 54.8069 16.8771 54.8069 17.7074V24.9092H50.4546V5.95703H54.8069V12.6174C55.6954 11.6968 56.9104 11.2366 58.4519 11.2366Z" fill="#141414"/>
<path d="M74.9393 11.5073H79.2915V24.9092H74.9393V23.7992C74.0507 24.7197 72.8357 25.18 71.2943 25.18C69.8436 25.18 68.6104 24.7197 67.5949 23.7992C66.5975 22.8606 66.0988 21.552 66.0988 19.8733V11.5073H70.4511V18.9257C70.4511 19.7019 70.6506 20.2885 71.0495 20.6856C71.4485 21.0646 71.9925 21.2541 72.6816 21.2541C73.3707 21.2541 73.9147 21.0376 74.3137 20.6044C74.7308 20.1712 74.9393 19.5394 74.9393 18.7091V11.5073Z" fill="#141414"/>
<path d="M90.0686 11.2366C91.9183 11.2366 93.4869 11.8954 94.7744 13.213C96.062 14.5126 96.7057 16.1822 96.7057 18.2218C96.7057 20.2253 96.071 21.8859 94.8016 23.2035C93.5322 24.5211 91.9636 25.18 90.0958 25.18C88.5 25.18 87.1943 24.6926 86.1788 23.7179V24.9092H81.8266V5.95703H86.1788V12.6715C87.1762 11.7149 88.4728 11.2366 90.0686 11.2366ZM89.1981 21.4166C90.0323 21.4166 90.7395 21.1278 91.3198 20.5502C91.9001 19.9546 92.1903 19.1784 92.1903 18.2218C92.1903 17.2471 91.9001 16.471 91.3198 15.8934C90.7577 15.2977 90.0505 14.9999 89.1981 14.9999C88.3277 14.9999 87.6023 15.2977 87.022 15.8934C86.4599 16.471 86.1788 17.2471 86.1788 18.2218C86.1788 19.1784 86.4599 19.9546 87.022 20.5502C87.6023 21.1278 88.3277 21.4166 89.1981 21.4166Z" fill="#141414"/>
</svg>
